<svg width="60" height="60" viewBox="0 0 60 60" xmlns="http://www.w3.org/2000/svg"><g fill="none" fill-rule="evenodd"><g fill="#ffffff" fill-opacity="0.4"><path d="M36 34v2h-2v-2h2zm0 4v2h-2v-2h2zM6 34v2H4v-2h2zm0 4v2H4v-2h2zM6 4v2H4V4h2zm0 4v2H4V8h2zm30 0v2h-2V8h2zm0-4v2h-2V4h2zm24 30v2h-2v-2h2zm0 4v2h-2v-2h2zM30 34v2h-2v-2h2zm0 4v2h-2v-2h2zM30 4v2h-2V4h2zm0 4v2h-2V8h2zm24 0v2h-2V8h2zm0-4v2h-2V4h2zM60 4v2h-2V4h2zm0 8v2h-2v-2h2zm0 8v2h-2v-2h2zm0 8v2h-2v-2h2zm0 8v2h-2v-2h2zm0 8v2h-2v-2h2zm0 8v2h-2v-2h2zm-8 8v-2h2v2h-2zm-8 0v-2h2v2h-2zm-8 0v-2h2v2h-2zm-8 0v-2h2v2h-2zm-8 0v-2h2v2h-2zm-8 0v-2h2v2h-2zm-8 0v-2h2v2h-2zm-8 0v-2h2v2h-2zm0-8v-2h2v2h-2zm0-8v-2h2v2h-2zm0-8v-2h2v2h-2zm0-8v-2h2v2h-2zm0-8v-2h2v2h-2zm0-8v-2h2v2h-2zm0-8v-2h2v2h-2zm0-8v-2h2v2h-2zm8-8v2h-2V0h2zm8 0v2h-2V0h2zm8 0v2h-2V0h2zm8 0v2h-2V0h2zm8 0v2h-2V0h2zm8 0v2h-2V0h2zm8 0v2h-2V0h2zm8 0v2h-2V0h2zm-8 8v2h-2V8h2zm0 8v2h-2v-16h2zM30 16v2h-2v-2h2zm0 8v2h-2v-2h2zm0 8v2h-2v-2h2zm0 8v2h-2v-2h2zm0 8v2h-2v-2h2zm0 8v2h-2v-2h2zm0 8v2h-2v-2h2zm8-64v2h-2V0h2zm0 8v2h-2V8h2zm0 8v2h-2v-2h2zm0 8v2h-2v-2h2zm0 8v2h-2v-2h2zm0 8v2h-2v-2h2zm0 8v2h-2v-2h2zm0 8v2h-2v-2h2zm8-64v2h-2V0h2zm0 8v2h-2V8h2zm0 8v2h-2v-2h2zm0 8v2h-2v-2h2zm0 8v2h-2v-2h2zm0 8v2h-2v-2h2zm0 8v2h-2v-2h2zm0 8v2h-2v-2h2zm8-64v2h-2V0h2zm0 8v2h-2V8h2zm0 8v2h-2v-2h2zm0 8v2h-2v-2h2zm0 8v2h-2v-2h2zm0 8v2h-2v-2h2zm0 8v2h-2v-2h2zm0 8v2h-2v-2h2zM24 0v2h-2V0h2zm0 8v2h-2V8h2zm0 8v2h-2v-2h2zm0 8v2h-2v-2h2zm0 8v2h-2v-2h2zm0 8v2h-2v-2h2zm0 8v2h-2v-2h2zm0 8v2h-2v-2h2zM18 0v2h-2V0h2zm0 8v2h-2V8h2zm0 8v2h-2v-2h2zm0 8v2h-2v-2h2zm0 8v2h-2v-2h2zm0 8v2h-2v-2h2zm0 8v2h-2v-2h2zm0 8v2h-2v-2h2zM12 0v2h-2V0h2zm0 8v2h-2V8h2zm0 8v2h-2v-2h2zm0 8v2h-2v-2h2zm0 8v2h-2v-2h2zm0 8v2h-2v-2h2zm0 8v2h-2v-2h2zm0 8v2h-2v-2h2zM6 0v2H4V0h2zm0 8v2H4V8h2zm0 8v2H4v-2h2zm0 8v2H4v-2h2zm0 8v2H4v-2h2zm0 8v2H4v-2h2zm0 8v2H4v-2h2zm0 8v2H4v-2h2zM0 0v2h2V0H0zm0 8v2h2V8H0zm0 8v2h2v-2H0zm0 8v2h2v-2H0zm0 8v2h2v-2H0zm0 8v2h2v-2H0zm0 8v2h2v-2H0zm0 8v2h2v-2H0z"/></g></g></svg>